<svg width="48" height="44" viewBox="0 0 48 44" fill="none" xmlns="http://www.w3.org/2000/svg">
<mask id="mask0_165_66" style="mask-type:luminance" maskUnits="userSpaceOnUse" x="0" y="0" width="48" height="44">
<path d="M17.1 1H3.3C2.69 1 2.10499 1.22125 1.67365 1.61508C1.24232 2.0089 1 2.54305 1 3.1V15.7C1 16.257 1.24232 16.7911 1.67365 17.1849C2.10499 17.5787 2.69 17.8 3.3 17.8H17.1C17.71 17.8 18.295 17.5787 18.7263 17.1849C19.1577 16.7911 19.4 16.257 19.4 15.7V3.1C19.4 2.54305 19.1577 2.0089 18.7263 1.61508C18.295 1.22125 17.71 1 17.1 1ZM17.1 26.2H3.3C2.69 26.2 2.10499 26.4212 1.67365 26.8151C1.24232 27.2089 1 27.743 1 28.3V40.9C1 41.457 1.24232 41.9911 1.67365 42.3849C2.10499 42.7788 2.69 43 3.3 43H17.1C17.71 43 18.295 42.7788 18.7263 42.3849C19.1577 41.9911 19.4 41.457 19.4 40.9V28.3C19.4 27.743 19.1577 27.2089 18.7263 26.8151C18.295 26.4212 17.71 26.2 17.1 26.2ZM44.7 1H30.9C30.29 1 29.705 1.22125 29.2737 1.61508C28.8423 2.0089 28.6 2.54305 28.6 3.1V15.7C28.6 16.257 28.8423 16.7911 29.2737 17.1849C29.705 17.5787 30.29 17.8 30.9 17.8H44.7C45.31 17.8 45.895 17.5787 46.3263 17.1849C46.7577 16.7911 47 16.257 47 15.7V3.1C47 2.54305 46.7577 2.0089 46.3263 1.61508C45.895 1.22125 45.31 1 44.7 1Z" fill="#555555" stroke="white" stroke-width="2" stroke-linejoin="round"/>
<path d="M28.5996 26.2H46.9996M37.7996 34.6H46.9996M28.5996 43H46.9996" stroke="white" stroke-width="2" stroke-linecap="round" stroke-linejoin="round"/>
</mask>
<g mask="url(#mask0_165_66)">
<path d="M-3.59961 -3.19995H51.6004V47.2001H-3.59961V-3.19995Z" fill="#004F6C"/>
</g>
</svg>
