<svg width="31" height="32" viewBox="0 0 31 32" fill="none" xmlns="http://www.w3.org/2000/svg">
<circle cx="15.2857" cy="16.0499" r="15.2857" fill="white"/>
<path d="M16.7801 9.85107C15.9467 9.85107 15.1475 10.1821 14.5583 10.7714C13.969 11.3606 13.638 12.1598 13.638 12.9931V14.7425H11.9566C11.8723 14.7425 11.8037 14.8104 11.8037 14.8954V17.2052C11.8037 17.2894 11.8716 17.3581 11.9566 17.3581H13.638V22.0966C13.638 22.1809 13.7059 22.2495 13.7909 22.2495H16.1007C16.1849 22.2495 16.2536 22.1816 16.2536 22.0966V17.3581H17.9499C18.0199 17.3581 18.081 17.3105 18.098 17.2426L18.6755 14.9327C18.6812 14.9102 18.6816 14.8866 18.6769 14.8639C18.6721 14.8412 18.6622 14.8198 18.6479 14.8015C18.6336 14.7831 18.6153 14.7683 18.5944 14.7581C18.5736 14.7478 18.5506 14.7425 18.5274 14.7425H16.2536V12.9931C16.2536 12.924 16.2672 12.8555 16.2936 12.7917C16.3201 12.7278 16.3589 12.6697 16.4078 12.6208C16.4567 12.5719 16.5147 12.5332 16.5786 12.5067C16.6425 12.4802 16.7109 12.4666 16.7801 12.4666H18.5464C18.6307 12.4666 18.6993 12.3987 18.6993 12.3138V10.0039C18.6993 9.91969 18.6313 9.85107 18.5464 9.85107H16.7801Z" fill="#412E57"/>
</svg>
