<svg width="32" height="32" viewBox="0 0 32 32" fill="none" xmlns="http://www.w3.org/2000/svg">
<circle cx="15.857" cy="16.0499" r="15.2857" fill="white"/>
<path d="M19.2539 13.6724C19.8167 13.6724 20.273 13.2161 20.273 12.6533C20.273 12.0905 19.8167 11.6343 19.2539 11.6343C18.6911 11.6343 18.2349 12.0905 18.2349 12.6533C18.2349 13.2161 18.6911 13.6724 19.2539 13.6724Z" fill="#412E57"/>
<path d="M18.5744 9.93604C20.4495 9.93604 21.9712 11.4578 21.9712 13.3329V18.7678C21.9712 20.6428 20.4495 22.1646 18.5744 22.1646H13.1395C11.2645 22.1646 9.74268 20.6428 9.74268 18.7678V13.3329C9.74268 11.4578 11.2645 9.93604 13.1395 9.93604H15.857H18.5744Z" stroke="#412E57" stroke-width="2" stroke-linecap="round" stroke-linejoin="round"/>
<path d="M15.8571 13.333C17.3585 13.333 18.5746 14.5491 18.5746 16.0505C18.5746 17.5519 17.3585 18.7679 15.8571 18.7679C14.3557 18.7679 13.1396 17.5519 13.1396 16.0505C13.1396 14.5491 14.3557 13.333 15.8571 13.333Z" stroke="#412E57" stroke-width="2" stroke-linecap="round" stroke-linejoin="round"/>
</svg>
