<svg width="42" height="44" viewBox="0 0 42 44" fill="none" xmlns="http://www.w3.org/2000/svg">
<path d="M33.3043 22V32.9091M24.6087 22H42M36.7826 22V5.63636C36.7826 4.67194 36.4161 3.74702 35.7638 3.06507C35.1115 2.38312 34.2268 2 33.3043 2C32.3819 2 31.4971 2.38312 30.8448 3.06507C30.1925 3.74702 29.8261 4.67194 29.8261 5.63636V22M2 9.27273C2 5.63636 3.73913 2 5.47826 2L8.95652 9.27273H12.4348L15.913 2C17.6522 2 19.3913 5.63636 19.3913 9.27273C19.3913 13.3709 17.6522 16.5455 14.1739 18.3636V38.3636C14.1739 40.1818 14.1739 42 10.6957 42C7.21739 42 7.21739 40.1818 7.21739 38.3636V18.3636C3.73913 16.5455 2 13.3709 2 9.27273ZM29.8261 32.9091L31.5652 42H35.0435L36.7826 32.9091H29.8261Z" stroke="#6C4E00" stroke-width="3"/>
</svg>
